<svg id="Layer_1" data-name="Layer 1" xmlns="http://www.w3.org/2000/svg" viewBox="0 0 563.45 812.25"><defs><style>.cls-1{fill:#e9afae;}.cls-2{fill:#a42b2d;}.cls-3{fill:#80727f;}.cls-4{fill:#132b50;}.cls-5{fill:#5e3436;}.cls-6{fill:#3e789d;}.cls-7{fill:#25aac1;}.cls-8{fill:#fff;}</style></defs><title>1</title><path class="cls-1" d="M690.7,140.17a96.39,96.39,0,0,0-13.45-36.31,72.75,72.75,0,0,0-18.77-20.21,63,63,0,0,0-26.21-11.32c-15.2-2.69-29.74-.28-43.62,6.41A118.67,118.67,0,0,0,558.9,99.61a201.82,201.82,0,0,0-22.46,24.91,253.58,253.58,0,0,0-17.23,25.32c-3.25,5.56-6.32,11.23-9.47,16.85a25.32,25.32,0,0,1-1.23,2.23,2.3,2.3,0,0,1-3.76.18,10.57,10.57,0,0,1-1.26-2.2A237.12,237.12,0,0,0,483.09,132c-10.58-15.14-22.61-28.94-37.17-40.41a105.78,105.78,0,0,0-29.71-16.8A79.14,79.14,0,0,0,388.73,70a100.12,100.12,0,0,0-23.82,3,86.59,86.59,0,0,0-33.26,15.93,80,80,0,0,0-24.4,32.24,89.42,89.42,0,0,0-6.63,29,113.39,113.39,0,0,0,2.76,33.33,183.72,183.72,0,0,0,9.32,28.72,287.81,287.81,0,0,0,24.78,46.24A405.88,405.88,0,0,0,373.73,306c1,1.1,1.95,2.17,2.95,3.24a2.53,2.53,0,0,0,3.12.72c.26-.65.59-1.43.88-2.21,1.11-3,2.19-5.93,3.31-8.88,2.69-7.11,8.27-10.51,15.38-11.92a2,2,0,0,1,2.56,1.44,9.34,9.34,0,0,1,.39,1.4c1.13,5.12,1,10.15-1.42,14.91a63.79,63.79,0,0,1-3.55,5.94c-1.78,2.74-3.65,5.42-5.41,8,.77,1.86,1.42,3.56,2.18,5.21s.26,3.87,1.59,5.74l4.71-4.77a64.5,64.5,0,0,1,17.2-12.77,4.6,4.6,0,0,0,2.4-2.56,21,21,0,0,1,10.27-10.94c7.18-3.75,14.79-5.32,22.89-3.81a16.67,16.67,0,0,0,2.92,0c.87-1.38,1.69-2.73,2.55-4.05,1.08-1.62,2.13-3.26,3.29-4.82a39.92,39.92,0,0,1,14-12,11.77,11.77,0,0,1,2.36-.95,2.35,2.35,0,0,1,3,1.4c.75,1.52,1.31,3.14,2,4.69.38.85.88,1.65,1.42,2.63.84-.73,1.52-1.24,2.11-1.84a51.13,51.13,0,0,1,8.8-7.06,44.25,44.25,0,0,1,27.38-7.1c.9.06,1.76.18,2.13,1.08a2.42,2.42,0,0,1-.34,2.73c-.74.8-1.52,1.57-2.33,2.31-1.8,1.64-3.64,3.23-5.43,4.87-.4.37-1.06.67-.73,1.68H518c1.7,0,3.4-.17,5.1-.11A26.38,26.38,0,0,1,537.43,283c2.87,2,2.81,3.94-.16,5.86-2.76,1.77-5.57,3.47-8.34,5.24a9.49,9.49,0,0,0-1.29,1.35c1.9.32,3.44.63,5,.84,3.26.42,6.53.7,9.77,1.21a94.14,94.14,0,0,1,34.94,13c.8.49,1.67.86,2.71,1.39a84.45,84.45,0,0,1-.3-9.26,17.42,17.42,0,0,1,2.92-8.92c1.73-2.44,3.85-4.61,5.86-7-.57-1.55-1.15-3.14-1.75-4.72a25.9,25.9,0,0,1-1.49-12.9,18.28,18.28,0,0,1,3.82-9.32,3.87,3.87,0,0,1,5.2-1.08,6.07,6.07,0,0,1,1.75,1.29,29.88,29.88,0,0,1,3.12,4,31.47,31.47,0,0,1,4.29,15.62c0,1.18-.28,2.43.45,3.55,1.91.39,3.85.66,5.71,1.2s3.84,1.4,5.73,2.1c.52-.41.91-.69,1.26-1A325,325,0,0,0,643.4,258,252.75,252.75,0,0,0,676,211.92a139,139,0,0,0,13.48-34.14,79,79,0,0,0,2.45-15.08A111.22,111.22,0,0,0,690.7,140.17Z" transform="translate(-199.61 -30.57)"/><path class="cls-2" d="M726.41,152a93.18,93.18,0,0,0-1.82-14.08,136.11,136.11,0,0,0-9.14-29.9A127.74,127.74,0,0,0,697.2,78.26a107.22,107.22,0,0,0-30.35-25.9,91.71,91.71,0,0,0-32.14-11.17,109.13,109.13,0,0,0-23.27-.42c-2.79.2-5.58.46-8.34.9a147.3,147.3,0,0,0-20.57,4.74,110.72,110.72,0,0,0-34.75,18,118.86,118.86,0,0,0-23.91,24.44,119.8,119.8,0,0,0-15.15,26.94,19.74,19.74,0,0,1-1.18,2.66c-1.1,1.93-3.14,1.91-4.32,0a18.68,18.68,0,0,1-1.1-2.3,147.56,147.56,0,0,0-16.31-28,138.53,138.53,0,0,0-26.54-27.48,114.76,114.76,0,0,0-24.6-14.85,118.12,118.12,0,0,0-28.87-8.67,125.65,125.65,0,0,0-17.41-1.62,118.41,118.41,0,0,0-14.93.59,101.3,101.3,0,0,0-16.8,3.22A117,117,0,0,0,327,52.23a123.6,123.6,0,0,0-39.55,37.68,116.63,116.63,0,0,0-12.7,25.36A118.51,118.51,0,0,0,268,149.44a128.26,128.26,0,0,0,.42,18.59,191.23,191.23,0,0,0,3.11,22,196.47,196.47,0,0,0,7.64,27.36,270.15,270.15,0,0,0,18.1,40.17,331.32,331.32,0,0,0,22,34.8,361,361,0,0,0,30.85,37.42,10.18,10.18,0,0,0,2,1.24c3.77-9.48,10.07-16.2,19.88-19.58-.73-1-1.24-1.8-1.85-2.53-4.76-5.69-9.71-11.22-14.27-17.07a416.51,416.51,0,0,1-33.45-49.53,240.63,240.63,0,0,1-15.95-33.55,151.09,151.09,0,0,1-9.8-40.23,117,117,0,0,1,.41-24.75A96.33,96.33,0,0,1,301.83,124a82.16,82.16,0,0,1,22.31-34.15,89.55,89.55,0,0,1,36.63-20.33,91.81,91.81,0,0,1,25.11-4,103,103,0,0,1,16,.75,92.33,92.33,0,0,1,25.66,7.93,122.58,122.58,0,0,1,30,20.49A182.69,182.69,0,0,1,474,111.76a235.39,235.39,0,0,1,22.53,31.38c3.12,5.21,5.9,10.62,8.85,15.93.44.8.65,1.82,1.87,2.27a19.75,19.75,0,0,0,1.43-2c3.14-5.91,6.43-11.72,10-17.36,10.71-16.77,22.82-32.41,37.42-46a123.15,123.15,0,0,1,31.93-22.13,76.81,76.81,0,0,1,28.78-7.36,70.23,70.23,0,0,1,53.54,20.51c10.09,9.89,17,21.81,21.5,35.13a107,107,0,0,1,5.27,26,100.39,100.39,0,0,1-2.64,32.54,144.65,144.65,0,0,1-14.73,36c-10.66,18.82-23.84,35.81-38.39,51.75-6,6.55-12.15,12.93-18.73,18.9-.78.71-1.43,1.55-2.24,2.44.71.82,1.2,1.51,1.8,2.07a27.54,27.54,0,0,1,4.92,6.73,42.24,42.24,0,0,1,5,15.89,11.89,11.89,0,0,0,1,4.33,14.66,14.66,0,0,0,1.61-1.15c10.29-10,20.39-20.23,29.83-31.05,12.17-13.94,23.68-28.38,33.61-44a237.14,237.14,0,0,0,14.63-26.06c5.52-11.78,10.07-23.92,12.33-36.85A130.43,130.43,0,0,0,727,162.17C727.08,158.76,726.54,155.38,726.41,152Z" transform="translate(-199.61 -30.57)"/><path class="cls-3" d="M376.23,516.93A126.88,126.88,0,0,1,349,482.45a84.82,84.82,0,0,1-9.86-29.93,17.93,17.93,0,0,0-.76-2.36c-1.25,1.74-2.07,2.92-2.93,4.08-4,5.36-7.91,10.79-12.06,16a534.66,534.66,0,0,1-36.08,40.63c-11.35,11.7-22.93,23.18-33.79,35.35a247.71,247.71,0,0,0-21.42,27.22,152.63,152.63,0,0,0-21.23,46.93,177.24,177.24,0,0,0-4.33,24c-.32,2.77-.46,5.57-.6,8.37a7.86,7.86,0,0,0,.42,2c20.84,3.31,41,2.57,60.54-6.29.21-1.4.45-2.71.6-4q1.14-10,2.24-19.93c.54-5,1-9.9,1.58-14.85.22-2,.42-4.11.77-6.14.47-2.69,2.74-3.43,4.87-1.65.37.31.7.68,1,1q12.2,11.79,24.41,23.58c.6.57,1.3,1,2,1.56.66-.34,1.21-.59,1.72-.9a132.08,132.08,0,0,0,43.69-41.7,200.38,200.38,0,0,0,16.74-32.33c4.45-10.52,8.07-21.36,11.95-32.1a7.28,7.28,0,0,0,.2-1.77C377.84,518.4,377,517.66,376.23,516.93Z" transform="translate(-199.61 -30.57)"/><path class="cls-4" d="M584.73,415.7a39.52,39.52,0,0,0-12.13-13.38c-7.26-5.2-15.46-8.07-24.14-9.69-5.41-1-10.88-.88-16.36-.72A63.8,63.8,0,0,0,511.85,396a50,50,0,0,0-24.94,19.84,10.06,10.06,0,0,0-1.77,4.32,123.05,123.05,0,0,1-3.54,18.23c-.15.53-.86,1.28.16,2l1.8-1.67a13.45,13.45,0,0,1,10.28-3.8,23.17,23.17,0,0,1,6.72,1.37c6.67,2.38,10.57,7.26,12.3,13.81a50.35,50.35,0,0,1,1.72,14.44c-.17,5.71-.31,11.42-.46,17.13a5.75,5.75,0,0,0,.65,3.63,83.18,83.18,0,0,0,15.08,4.94,47,47,0,0,0,15.22.9,64.17,64.17,0,0,0,7.74-1.89,2.31,2.31,0,0,0,1.79-2.4A130.58,130.58,0,0,1,556.78,471,72.4,72.4,0,0,1,562,454.41c1.76-3.61,3.86-7.05,7.38-9.28,3.78-2.39,7.73-3.47,12.09-1.6a19,19,0,0,0,2.19.68c.39-.43.65-.58.69-.78a10,10,0,0,0,.24-1.8c.07-2.07,0-4.14.18-6.2.33-4.6.69-9.21,1.14-13.8A10,10,0,0,0,584.73,415.7Z" transform="translate(-199.61 -30.57)"/><path class="cls-5" d="M629.48,522.75c-2.54.21-5.08.57-7.62.66A128.17,128.17,0,0,1,595.32,522c-6.33-1.09-12.7-2-19-3-7.06-1.19-14.1-2.52-21.15-3.75a200,200,0,0,0-29-2.9l-1.45-.08c-3.89-.19-7.77-.4-11.65-.55-3.41-.13-6.81-.18-10.21-.27L485.69,511a60.79,60.79,0,0,1-7.28-.26c-5-.71-9.94-.23-14.9-1-3.09-.47-6.28-.44-9.43-.77q-8.52-.88-16.92-2.39A144.7,144.7,0,0,1,412.22,500a118.83,118.83,0,0,1-16-7,160.56,160.56,0,0,1-14.76-9.37c-.53-.37-.95-1.12-2-.75a9.43,9.43,0,0,0,2.06,3.25c2.71,3.13,5.42,6.24,8.1,9.39A167.1,167.1,0,0,0,405.08,511c2,1.8,4.09,3.44,6.14,5.16a3.13,3.13,0,0,0,3.38.51c2.16-.8,4.38-1.42,6.59-2.07a25.54,25.54,0,0,1,11.2-.45,11.43,11.43,0,0,1,4,1.69,24.06,24.06,0,0,1,8.74,9.57c.56,1.06,1.13,2.11,1.77,3.31,1.6-.65,3-1.23,4.47-1.83a19.34,19.34,0,0,1,10-1.67,23.9,23.9,0,0,1,16.93,10.26c.48.66,1.08,1.24,1.56,1.79a3.74,3.74,0,0,0,.55-.13,8.06,8.06,0,0,0,1-.5c5.73-4,11.9-4.38,18.42-2.3,3.85,1.22,6.81,3.65,9.55,6.47.65.68,1.32,1.33,2,2,11.92-9.26,24.14-9.46,34.88,2.39a25.84,25.84,0,0,1,9.24-6.17c3.8-1.37,7.69-.84,11.55-.94s7.17,2,10.64,3.71l1.94-3.17a22,22,0,0,1,9.76-9,20.5,20.5,0,0,1,19,.8c2.24,1.21,4.36,2.62,6.69,4a78.64,78.64,0,0,0,16.35-11.65C630.67,522.74,630.07,522.7,629.48,522.75Z" transform="translate(-199.61 -30.57)"/><path class="cls-6" d="M756.17,725.65c-1.87-5.27-5.82-8.25-11.48-8.76a29.7,29.7,0,0,0-3.27,0c-.73,0-1.46.16-2.19.15-2.3,0-3.26-1.26-2.85-3.58.09-.48.28-.93.39-1.41.82-3.54,1.78-7.07,2.4-10.65a23,23,0,0,0-.11-9.78c-1.94-7.42-9-12-16.21-12.55-5.42-.38-10.27,1.48-14.91,4a13.15,13.15,0,0,0-5.79,6.35,32.05,32.05,0,0,0-2.55,15.31,65.58,65.58,0,0,0,2.46,14.7,15,15,0,0,1,.55,3.59,2.29,2.29,0,0,1-1.91,2.34,2.43,2.43,0,0,1-2.76-1.24,11,11,0,0,1-.9-2.39,19.79,19.79,0,0,0-5.37-9c-4-4.11-9-6.1-14.6-6.77a26,26,0,0,0-9.79.34A19.64,19.64,0,0,0,654,717.4a29.21,29.21,0,0,0-2.82,15.24,20.85,20.85,0,0,0,8.67,15.79,43.07,43.07,0,0,0,5.29,3.21,37.69,37.69,0,0,0,9.91,3.54,14.39,14.39,0,0,1,3.1,1,2.31,2.31,0,0,1-.77,4.34,9,9,0,0,1-2.88-.16,45.7,45.7,0,0,1-12.3-4.42c-13.32-7-18.44-20.35-14.94-34.18a28.31,28.31,0,0,1,11-16.66c.52-.37,1.41-.61,1.13-1.59-.09-.08-.16-.21-.25-.22a100.83,100.83,0,0,0-21.81-1.21,70.37,70.37,0,0,0-14.75,2.19,82.7,82.7,0,0,0-17.37,6.47,18.42,18.42,0,0,1-3.37,1.32,2.24,2.24,0,0,1-2.47-1.15,2.54,2.54,0,0,1,.36-3c.7-.65,1.51-1.18,2.45-1.89-.35-2.86-.62-5.75-1.05-8.62-2.19-14.49-6.45-28.42-11.76-42S578,628.79,571.83,615.7c-3.05-6.49-6-13-9-19.56a9.77,9.77,0,0,1-.78-2.4,2.52,2.52,0,0,1,1.59-2.62,2,2,0,0,1,2.34.46,7.83,7.83,0,0,1,1.62,2.35c1.56,3.3,3,6.64,4.55,10,.24.52.49,1.13,1.33.75a52.77,52.77,0,0,1,5-16.28,89.56,89.56,0,0,1,8.5-13.58,25.62,25.62,0,0,0,1.33-2.36c-5,1-9.61,2.11-14.24,2.92s-9.61,1.33-14.38,2.19-9.46.26-14.43,1.39a98.1,98.1,0,0,0,4.65,20.22c3.43,10.66,7.62,21,11.8,31.39,6.63,16.46,13.42,32.85,18.82,49.77,4.44,13.92,8,28,9.27,42.64a101.64,101.64,0,0,1-3.66,38.24,69.35,69.35,0,0,1-27,37.87,86.31,86.31,0,0,1-21.4,10.82,117.11,117.11,0,0,1-33.19,6.27A152.75,152.75,0,0,1,474.7,815c-11.66-1.71-22.8-4.84-33.23-10.34a77.37,77.37,0,0,1-29-26.06A86.8,86.8,0,0,1,400.81,752a101.38,101.38,0,0,1-2.54-14,128.92,128.92,0,0,1-1-18.92c.22-5.34.5-10.67,1-16,.66-6.42,1.68-12.77,2.9-19.09a270.62,270.62,0,0,1,7.93-30.28c4.84-15.31,10.63-30.27,16-45.38,5-14.09,9.85-28.23,11.69-43.19a37.88,37.88,0,0,0,.27-8.8,5.3,5.3,0,0,0-.8-.62,240,240,0,0,1-24.12-12c-6.77-3.84-13.43-7.85-19.23-13.15-2.41-2.21-5.08-4.16-7.64-6.21a20.51,20.51,0,0,0-1.83-1.15c-1.14,3.74-2.4,7.12-3.57,10.53-1.22,3.56-2.67,7.05-3.9,10.6S373,551,372.15,554.46c3.27,2.65,6.53,5,9.45,7.72a81,81,0,0,1,8.18,8.8,101,101,0,0,1,6.94,10.27c2,3.4,3.78,7,5.92,11,.36-1.39.68-2.26.81-3.16.15-1.08.1-2.19.19-3.28.38-5,.78-9.93,1.17-14.9.05-.6,0-1.22.11-1.82a2.79,2.79,0,0,1,2.5-2.26,2.69,2.69,0,0,1,2.45,2.31,18.83,18.83,0,0,1,.06,2.91A186.31,186.31,0,0,1,408,592.74a174.07,174.07,0,0,1-3.55,17.86c-2.67,10.51-6.69,20.55-10.81,30.55-2.46,6-5,11.88-7.25,17.9a93.66,93.66,0,0,0-5.72,24,115.91,115.91,0,0,0,1.41,30.16c1.2,7.2,3,14.26,4.8,21.32a19.8,19.8,0,0,1,.51,2.12,2,2,0,0,1-1.16,2.08,2.41,2.41,0,0,1-3.62-1.18c-.59-1.59-1-3.26-1.43-4.9a163.11,163.11,0,0,1-5.92-32.94,20,20,0,0,0-1.86-7,37.56,37.56,0,0,0-17.63-18.3,45.19,45.19,0,0,0-29.7-4.31,37.66,37.66,0,0,0-26,17.74,35.4,35.4,0,0,0-1.63,3.19c.7.94,1.25,1.73,1.85,2.48a20.09,20.09,0,0,1,4.08,8.08,31.38,31.38,0,0,1,.77,5,2.59,2.59,0,0,1-2,3c-1.44.23-2.64-.71-3.06-2.48-.14-.58-.11-1.21-.2-1.8-.92-6-3.89-10.68-9.3-13.62-6-3.24-12.28-3.6-18.74-2-7.79,1.9-13.73,6.63-18.42,13-5.82,7.84-6.09,16.17-1.43,24.65a32.88,32.88,0,0,0,7.82,9.55c1.22,1,2.43,2,3.61,3.07a2.4,2.4,0,0,1,.81,2.93,2.48,2.48,0,0,1-2.93,1.58c-2.41-.26-4.82-.64-7.24-.76a36.42,36.42,0,0,0-14.72,1.84,19.34,19.34,0,0,0-11.78,11.22,34,34,0,0,0-1.32,20.42c1.12,5.06,4.14,8.79,9.29,10.33a25.58,25.58,0,0,0,5.72.92c3.8.24,7.48-.64,11.15-1.46a18,18,0,0,1,2.1-.54,2.56,2.56,0,0,1,3.16,2.63,7.93,7.93,0,0,1,0,1.09,47.67,47.67,0,0,0,1.45,14.48c2.87,11.51,9.15,20.51,19.72,26.32,7.06,3.88,14.71,5.65,22.61,6.39a93.15,93.15,0,0,0,15.67.19,43.2,43.2,0,0,0,17.37-5,44.17,44.17,0,0,0,15-13.59,62,62,0,0,0,8.7-18c.25-.81.51-1.62.74-2.44a3.07,3.07,0,0,1,1.91-2.06c.67-.26,1.35-.52,2-.81a25.28,25.28,0,0,0,8.46-5.61,15.36,15.36,0,0,0,4.33-7.86,21.29,21.29,0,0,0-.63-10.46,15.68,15.68,0,0,0-8.85-10.1c-5.63-2.48-11.51-2.86-17.52-2.14-1.09.13-2.17.3-3.26.4a2.54,2.54,0,0,1-2.72-1.4,2.37,2.37,0,0,1,.52-3c.35-.35.7-.68,1-1a56.38,56.38,0,0,0,6.51-8.78,30.23,30.23,0,0,0,4.47-13c.61-7.92-2.82-14.12-8.53-19.26-5.32-4.79-11.47-5.93-18.31-4.09a40,40,0,0,0-11.24,5.08c-1.13.72-2.23,1.49-3.4,2.13a2.36,2.36,0,0,1-2.91-.81,1.89,1.89,0,0,1-.09-2.65,16.18,16.18,0,0,1,3-2.65,43.28,43.28,0,0,1,13.22-6,27.47,27.47,0,0,1,12.26-.53,23.49,23.49,0,0,1,11.21,5.75c8.92,8,13,18.73,8.56,30.9A49.66,49.66,0,0,1,353,751.87c-.45.64-1.31,1.19-.84,2,3.26.36,6.42.54,9.51,1.09a23.93,23.93,0,0,1,13.67,7.12c7.76,8.25,9.3,24.82-2.25,33.84a68.14,68.14,0,0,1-6.41,4.15,28.48,28.48,0,0,1-2.95,1.39c-.35,1.1-.69,2.13-1,3.17s-.66,2.09-1,3.11-.89,2-1.23,3-1.19,1.79-1,3.3c1.37-.81,2.49-1.47,3.6-2.14,7.44-4.41,15-8.5,23.52-10.52a26.67,26.67,0,0,1,9-1A72.78,72.78,0,0,1,408,802.85c7.19,2,13.85,5.27,20.43,8.67A152,152,0,0,0,447,820a87.92,87.92,0,0,0,26.72,5.24,155.83,155.83,0,0,0,19.69-.35,260.54,260.54,0,0,0,29.49-4.64q14.25-3,28.53-5.82a232,232,0,0,1,31.35-4.37,157.89,157.89,0,0,1,35.61,2.06,129.48,129.48,0,0,1,35.87,11.75c3.82,1.87,7.65,3.71,11.52,5.46a45.23,45.23,0,0,0,16.84,4.28,60.72,60.72,0,0,0,18.4-2.06c8.37-2.26,15.79-6.25,21.68-12.77A51.9,51.9,0,0,0,734.4,796c.25-1,.37-2,.54-3a4.56,4.56,0,0,0-1.34,1.8c-1.25,2.36-2.36,4.82-3.82,7a30.9,30.9,0,0,1-13.54,11.86,18.9,18.9,0,0,1-22.56-4.9,27.82,27.82,0,0,1-4.66-7.36c-2.39-5.46-3.06-11.18-3-17.08a44.68,44.68,0,0,1,7.45-24.4,31.43,31.43,0,0,1,11.8-11.18c8.64-4.51,19.62-3.73,26.43,6.91a70.08,70.08,0,0,1,3.47,7.19c.34.69.23,1.65,1,2.06,1.29-.83,2.49-1.63,3.71-2.41a47.83,47.83,0,0,0,13-11.63C758.67,743.1,759.34,734.57,756.17,725.65Zm-512.93,55c-6.4.63-12.54-5.53-12.72-12.22-.19-7.2,6.24-12.93,12.45-13a13.12,13.12,0,0,1,13.1,12.36C256.26,774.25,250.47,781.12,243.24,780.63Zm16-69.61a13.51,13.51,0,0,1,27-.42c0,8.91-7.24,14.13-13.49,13.65C265.66,724.78,259.27,718.24,259.25,711Zm96.43,53.31c6.85.26,12.92,6.07,12.71,12.91-.23,7.51-6.48,13.28-13.08,12.88-5.84.39-13.1-4.92-13-13.3A13,13,0,0,1,355.68,764.33Zm-26.21-45.07c8.84.22,14.13,7.87,13.54,14.16a13.57,13.57,0,0,1-13.83,13.83,14,14,0,1,1,.29-28Zm4.59,65.81a35.84,35.84,0,0,1-36.44,36.18c-21.26-.13-36.51-17.89-35.84-37.52.61-18.09,16.17-35.13,36.46-34.62A35.7,35.7,0,0,1,334.06,785.07ZM666.57,806c-8.48.09-14.18-7.49-14.21-14.41,0-7.55,7.13-14.77,14.45-14,6.05-.53,14.08,4.93,14.07,14A14.18,14.18,0,0,1,666.57,806Zm10.79-60.3a14.2,14.2,0,0,1-14.69-14.27c-.56-8,6.46-14.73,14.26-14.69,6.89,0,14.42,4.65,14.64,14A14.24,14.24,0,0,1,677.36,745.71Zm29.26-42c.33-8,6-13.67,14.11-14.39,8,.77,13.42,5.57,14.17,14.32-.66,7.36-5.37,13.72-14.14,13.86C713.27,717.66,707.32,712.36,706.62,703.75ZM741.08,749a13.53,13.53,0,0,1-13.54-13.31A13.24,13.24,0,1,1,741.08,749ZM435.47,309a38.73,38.73,0,0,1,20.26,8.36,58.16,58.16,0,0,1,12.93,14.26,102.33,102.33,0,0,1,13,30,138.94,138.94,0,0,1,3.83,20.76,165,165,0,0,1,1.22,18.17c0,1.59,0,3.17,0,4.75a15,15,0,0,0,.25,1.79c1-1,1.67-1.67,2.36-2.29,2-1.79,3.89-3.7,6-5.31,9.66-7.32,20.76-11.11,32.66-12.37a75.72,75.72,0,0,1,25,1.27c13,3,24.45,8.71,32.83,19.53.36.46.66,1.07,1.54.86.3-1.85.6-3.75.91-5.64,1-6.35,1.94-12.73,3.18-19a151.91,151.91,0,0,1,7.74-26.92c1.71-4.3,3.68-8.47,6.92-11.9,2.82-3,6.18-3.62,10-2.42a19.79,19.79,0,0,1,5.76,3.09c.72.52,1.38,1.29,2.68,1.19-3.29-7.27-8.36-12.46-15.68-15.05-5.7-2-11.05-1.28-15.38,3.42a7.3,7.3,0,0,1-1.35,1.2,2.22,2.22,0,0,1-3.19-.66,2,2,0,0,1-.1-2.68,28.08,28.08,0,0,1,2.45-2.67c.66-.66,1.38-1.25,2.23-2-.77-.73-1.35-1.34-2-1.87A148.24,148.24,0,0,0,575,314.83a87.91,87.91,0,0,0-35.46-12.51c-5.42-.71-10.88-1.15-16.32-1.75A27.29,27.29,0,0,1,520,300a2.34,2.34,0,0,1-1.88-2,2.39,2.39,0,0,1,1.13-2.5c.51-.34,1-.66,1.54-1,3.3-2.07,6.6-4.12,9.88-6.21.69-.44,1.3-1,2.31-1.76a20.46,20.46,0,0,0-8.54-2.53,34.12,34.12,0,0,0-11.2,1c-1.76.46-3.54.85-5.3,1.33a2.35,2.35,0,0,1-2.83-1,2.19,2.19,0,0,1,.22-3,23.76,23.76,0,0,1,1.74-1.88c2.12-2.18,4.27-4.33,6.37-6.53a22.27,22.27,0,0,0,1.63-2.19,31.53,31.53,0,0,0-10.9,2.6A43.54,43.54,0,0,0,488,285.83a31.45,31.45,0,0,1-2.5,2.66,2.61,2.61,0,0,1-4.23-.9c-.73-1.53-1.26-3.16-1.95-4.71-.49-1.09-.67-2.36-1.71-3.15-3.7,1.55-6,3.31-9.45,7.19-3.6,4-5.72,7.36-6.58,10.36.82.45,1.69.88,2.51,1.37a26.08,26.08,0,0,1,8.9,8.48,4.2,4.2,0,0,1,.93,2.68,2.67,2.67,0,0,1-1.88,2.43,2.09,2.09,0,0,1-2.3-.72,22.91,22.91,0,0,1-2-2.62,16.62,16.62,0,0,0-4.39-4.34c-5.3-3.78-11.33-4.89-17.66-4.41a31.94,31.94,0,0,0-8.85,2.07,22.37,22.37,0,0,0-8.54,5.44,12.17,12.17,0,0,0-1.16,1.79c1.12-.12,1.82-.22,2.52-.26A36.47,36.47,0,0,1,435.47,309Zm63.8,71.76a8.21,8.21,0,0,1,1.58-.89c8.08-3.35,16.28-6.38,24.89-8,4-.76,8.19-.92,10.37-1.15a61.23,61.23,0,0,1,31.28,8.69,5,5,0,0,1,.88.63,2.38,2.38,0,0,1,.7,2.64,2.65,2.65,0,0,1-2.92,1.68,15.21,15.21,0,0,1-3-1.3,69.35,69.35,0,0,0-12.73-5.33,50.24,50.24,0,0,0-14.73-1.93,59.78,59.78,0,0,0-18.87,3.5c-4.37,1.46-8.65,3.18-13,4.75a14.46,14.46,0,0,1-3.14.79,2,2,0,0,1-2.2-1.52A2.21,2.21,0,0,1,499.27,380.74ZM303.16,446.42c1.27-.33,1.89-1.46,2.71-2.31,4.56-4.73,9.14-9.44,13.61-14.25,7.7-8.29,15.43-16.55,22.94-25,9.2-10.37,18-21.08,26.57-32a27,27,0,0,0,3.25-5.25,160.09,160.09,0,0,1,15.67-27.11c3.06-4.18,3.16-4.66,2.69-9.78a39.46,39.46,0,0,0-1-5.36,10,10,0,0,0-1.05-2c-.92.8-1.62,1.45-2.38,2a22.34,22.34,0,0,1-3.54,2.55c-2.61,1.27-4.7.23-5.26-2.43a10.5,10.5,0,0,1-.19-2.9c.14-1.57.47-3.12.69-4.68.08-.56.06-1.13.09-1.8a7.52,7.52,0,0,0-3.77,0A20.48,20.48,0,0,0,363,322.48a30,30,0,0,0-7.76,16.57,14.9,14.9,0,0,1-.7,2.8,1.86,1.86,0,0,1-1.66,1.23,2.61,2.61,0,0,1-3.2-2.94,23.65,23.65,0,0,1,.43-2.82c-.47-.55-.84-1-1.26-1.46-2.62-2.71-5.31-5.35-7.88-8.12q-9.54-10.31-18.14-21.42c-.93-1.2-1.69-2.61-3.08-3.39-7,8.12-15.94,24.57-21.09,41.48a156.74,156.74,0,0,0-5.22,66.74C295,423.15,299.9,441.43,303.16,446.42Zm348.31,86.17a111,111,0,0,1-36.23,27.73,147.1,147.1,0,0,1-16.44,6.94,5.92,5.92,0,0,0-3.27,2.12c-3,4.27-6.25,8.38-9.17,12.72-6.05,9-9.54,18.79-9,29.83a19.59,19.59,0,0,0,1.83,7.71c4.86,10.2,9.53,20.49,13.66,31,6,15.32,10.78,31,13,47.32.07.56,0,1.25.91,1.53a6.9,6.9,0,0,0,.93-.94c5.15-7.67,10.41-15.27,15.4-23a214.89,214.89,0,0,0,16.13-30.2,192.47,192.47,0,0,0,15.45-64.17,301,301,0,0,0-.89-47.75,20.66,20.66,0,0,0-.56-2.39A21.49,21.49,0,0,0,651.47,532.59ZM359,418.42c0-.45,0-1-.8-1-.23.36-.51.75-.75,1.16-4.26,7.22-8.49,14.47-12.81,21.66a7.69,7.69,0,0,0-1.09,4.13,62.27,62.27,0,0,0,1.65,13c2.76,13.06,8.52,24.77,16.3,35.53a17.47,17.47,0,0,0,1.67,1.64,29.68,29.68,0,0,1,6.16-15.13c-1.15-1.82-2.29-3.52-3.33-5.29q-4.9-8.33-9.74-16.69a8.53,8.53,0,0,1-1-3.06,2.14,2.14,0,0,1,3.21-2.07,6.91,6.91,0,0,1,2.09,1.94,118.91,118.91,0,0,0,18.25,20.31,108.32,108.32,0,0,0,34.7,20.38,149.75,149.75,0,0,0,29.29,7.27c4,.61,7.94,1.15,11.93,1.55s8.23.64,12.36.88c7.4.43,14.81.89,22.22,1.18,7.05.26,14.11.25,21.17.49,14.09.46,28.18.94,42.13,3.3,6.47,1.09,12.94,2.17,19.4,3.3,6.21,1.09,12.39,2.32,18.61,3.35,4.2.69,8.42,1.29,12.66,1.67,4.71.42,9.45.66,14.18.76a63.85,63.85,0,0,0,9.48-.45,87.44,87.44,0,0,0,15.33-3.14,6.36,6.36,0,0,1,2.49-.28,2.32,2.32,0,0,1,2,2.61,2.87,2.87,0,0,1-1.22,2.14c-3.52,3-7.06,6-10.57,9-1,.83-2.26,1.36-2.9,2.82l8.08,6.2a84.73,84.73,0,0,0,13-14.81,73.54,73.54,0,0,0,13.21-43.25c0-2.28-.41-4.57-.64-7.05-.42.39-.66.52-.74.71-.35.91-.65,1.83-1,2.75-2.71,7.76-6.36,15-11.94,21.14-10.66,11.68-23.61,17.62-39.69,15.56a31.21,31.21,0,0,1-16.14-7.09A24.81,24.81,0,0,1,588.63,495c-2.17-5.75-2.93-11.77-3.45-17.83-.1-1.18.24-2.45-.77-3.41-.14,0-.3,0-.37.08a14.12,14.12,0,0,0-1,1,61.47,61.47,0,0,1-23.8,17.63,49.55,49.55,0,0,1-15.06,4.08,53.17,53.17,0,0,1-19.13-2c-17.46-4.86-31.14-15-41.18-30.08a61.58,61.58,0,0,1-5.55-10.65c-.25-.6-.29-1.52-1.49-1.43-.55,1.13-1.14,2.32-1.73,3.51a76,76,0,0,1-10.87,16.36A54.57,54.57,0,0,1,445,486.47a36.32,36.32,0,0,1-18.84,3.17A62.22,62.22,0,0,1,404.33,483,88.49,88.49,0,0,1,382,466.7C368.64,453.33,360.3,437.56,359,418.42Zm230.53-99.79c2.42,2,4.93,3.95,7.33,6a4.74,4.74,0,0,0,4,1.18,21.42,21.42,0,0,1,12.37,2.29,33.74,33.74,0,0,1,12.86,11.05A35.63,35.63,0,0,1,632,354.69a6,6,0,0,0,1.22,3,144,144,0,0,1,12.52,19.22,198.74,198.74,0,0,1,18.63,45.37c.21.78.55,1.51.89,2.41,1.34-1,1.46-2.43,1.91-3.64a241,241,0,0,0,9.55-34.34A213.43,213.43,0,0,0,680.87,356a166.34,166.34,0,0,0-.39-27.69,131.68,131.68,0,0,0-3.09-18.3,82.58,82.58,0,0,0-6.59-17.69c-.47-.91-.73-2.09-2.17-2.52A492.67,492.67,0,0,1,633,326.24c-.33,2.14-.56,3.94-.88,5.73a2.07,2.07,0,0,1-2,1.74,2.49,2.49,0,0,1-3-2.43,4.42,4.42,0,0,1,0-1.09,50.19,50.19,0,0,0-.05-12.37,40.37,40.37,0,0,0-5.7-18.27,24.94,24.94,0,0,0-8.81-8.54,19.91,19.91,0,0,0-8.76-2.57c-.32,1-.62,1.91-.88,2.81s-.42,1.9-.75,2.8c-1.56,4.29-5,5.37-8.18,1.4l-2.37-3c-.51.1-.8.07-1,.21a14.76,14.76,0,0,0-5.39,9.22,24.64,24.64,0,0,0,2.64,14.84A6.06,6.06,0,0,0,589.56,318.63ZM254.7,537.82c7.26-7.87,14.71-15.56,22.16-23.25,12.35-12.76,24.59-25.61,36-39.26a340.31,340.31,0,0,0,33.32-46.94c5-8.61,9.57-17.47,14.32-26.22a5.63,5.63,0,0,0,.5-1.37c1-4.11,1.89-8.22,2.88-12.51-1.31.48-1.84,1.63-2.55,2.5-11.91,14.63-24.57,28.6-37.51,42.31-11.1,11.77-22.43,23.31-33.62,35-12.2,12.73-24.18,25.67-35.27,39.4a285.9,285.9,0,0,0-22.8,32.09c-11,18.27-19.08,37.68-23.29,58.64a179.64,179.64,0,0,0-3,19.78c.66-1.44,1.07-2.17,1.34-3,.94-2.76,1.78-5.55,2.75-8.29,5.64-16,14-30.44,24-44A293.17,293.17,0,0,1,254.7,537.82Z" transform="translate(-199.61 -30.57)"/><path class="cls-7" d="M584,722.84A95.58,95.58,0,0,0,582.19,708a201.15,201.15,0,0,0-6.74-26.46c-5-15.75-11.18-31.06-17.4-46.37q-6.45-15.86-12.42-31.91a110.55,110.55,0,0,1-6.38-25.73c-4.1-.25-8-.59-11.84-.7-5.71-.16-11.37-.71-17-1.38a204.43,204.43,0,0,1-21.86-3.86,293.19,293.19,0,0,1-42.39-13c-1.33-.52-2.71-.91-4.3-1.43a11.81,11.81,0,0,0-.32,1.93c.12,4.91-1,9.65-1.85,14.43a145.36,145.36,0,0,1-5.89,21.78c-4,11.59-8.21,23.11-12.36,34.66-5.08,14.17-10,28.4-13.62,43-1.89,7.66-3.34,15.4-4.51,23.21-.94,6.27-1.29,12.57-1.71,18.86-.47,7.17.24,14.32,1.07,21.45a90.36,90.36,0,0,0,4.58,19.83c6.7,18.91,18.71,33.34,36.56,42.71,12.69,6.66,26.39,9.67,40.56,10.52a140,140,0,0,0,35.21-2,98.58,98.58,0,0,0,29.76-10.39c13.89-7.77,23.87-19,29.59-33.89,4.51-11.77,5.71-24,5.46-36.51C584.33,725.5,584,724.17,584,722.84ZM390.18,467.37c9.36,8,19.84,13.92,32.09,16.45a33.13,33.13,0,0,0,21.31-2.32,51.28,51.28,0,0,0,18-14,76.92,76.92,0,0,0,12.88-23.16c5.16-14.11,6.8-28.79,7.23-45.84-.33-3.91-.77-10-1.34-16A120.35,120.35,0,0,0,472.89,351a79.12,79.12,0,0,0-13.68-24c-4.67-5.44-10.16-9.75-17.08-12a28.37,28.37,0,0,0-10.37-1.6,30.5,30.5,0,0,0-14.67,5,72,72,0,0,0-13.24,10.83,124.62,124.62,0,0,0-16,20.3c-10.54,16.42-18.24,34-22.08,53.21a61.78,61.78,0,0,0-.88,21.39,63.4,63.4,0,0,0,7.54,21.58A79.29,79.29,0,0,0,390.18,467.37Zm-3.43-65a56,56,0,0,1,16.54-25.73,35.78,35.78,0,0,1,15.26-8.14,32.67,32.67,0,0,1,7.22-.57,30.93,30.93,0,0,1,18.09,5.75A39.47,39.47,0,0,1,456.51,388a62.88,62.88,0,0,1,7,23.94c.25,2.42.38,4.85.56,7.26,0,8.71-.87,17.25-4.45,25.3-4.05,9.11-10.25,16.15-19.63,20.05-11.2,4.66-21.92,3.8-31.79-3.34a56.69,56.69,0,0,1-23.05-35.51A45.69,45.69,0,0,1,386.75,402.34Zm272.68,23.07a178,178,0,0,0-9.87-28.54,181.41,181.41,0,0,0-18.2-32.76A71.4,71.4,0,0,0,621.2,352.2a36.36,36.36,0,0,0-5.2-4c-3-1.85-4.94-1.7-7.23,1.29a32.54,32.54,0,0,0-2.93,4.6,72.92,72.92,0,0,0-5.31,13.54,250.84,250.84,0,0,0-6.68,30.93c-1.25,7.79-2.43,15.58-3.17,23.42-.88,9.31-1.3,18.67-1.92,28l.12,0c0,1.94,0,3.89,0,5.83a164,164,0,0,0,1.35,23.65,73.44,73.44,0,0,0,3.14,14.19,17.89,17.89,0,0,0,6.16,8.42,26.08,26.08,0,0,0,9,4.65c8.87,2.56,17.35,1.36,25.5-2.64,9.65-4.73,16.45-12.3,21.19-21.84s6.72-20,7.41-30.58C663.2,442.76,661.52,434,659.43,425.41ZM656,450.07a45.58,45.58,0,0,1-3.71,13.67c-2.92,6.89-6.69,13.24-12.16,18.44a40.72,40.72,0,0,1-3.6,3.09c-6.7,5-13.9,5.84-21.6,2.52a27.48,27.48,0,0,1-12.63-11.19,45.21,45.21,0,0,1-5.83-15.24,64.47,64.47,0,0,1-1.1-14.13,72.76,72.76,0,0,1,3.73-25.51A43.78,43.78,0,0,1,606.61,408a25,25,0,0,1,16.79-9.3,18.18,18.18,0,0,1,9.58,1.72,28.4,28.4,0,0,1,10.13,7.61,54.76,54.76,0,0,1,12.44,26.38A56.86,56.86,0,0,1,656,450.07Zm-32.74,86.27a168.26,168.26,0,0,1-53.63,22,139.86,139.86,0,0,1-19.41,3.12c-4.23.35-8.44,1.06-12.67,1.22A193.62,193.62,0,0,1,511,562c-5.67-.57-11.33-1.4-16.94-2.41a188.65,188.65,0,0,1-45.72-14.34,190.58,190.58,0,0,1-72.81-58.12c-.79-1-1.67-2-2.75-3.3a17.36,17.36,0,0,0-3.7,8,47.35,47.35,0,0,1-.79,5.75c-.63,2.33.25,3.86,1.76,5.52a166.9,166.9,0,0,0,19.52,18.07c18.83,15,39.94,25.82,62.33,34.31a270.36,270.36,0,0,0,38.7,11.5c5.32,1.16,10.68,2.23,16.07,3,6.73,1,13.53,1.41,20.32,2a193,193,0,0,0,50.72-3.9,153.38,153.38,0,0,0,38-13.5A114.53,114.53,0,0,0,634,542.78c.75-.59,1.64-1.07,1.75-2.18a33.34,33.34,0,0,0-8.95-6.47C625.74,534.81,624.51,535.56,623.29,536.34Z" transform="translate(-199.61 -30.57)"/><path d="M762.89,730.91a26.83,26.83,0,0,0-3-10.44A17.23,17.23,0,0,0,747.3,711l-5-.91c.63-2.87,1.31-5.58,1.79-8.31a32.21,32.21,0,0,0,0-11.25c-1.25-7.09-5.39-12.12-11.77-15.26-8.27-4.08-16.5-3.32-24.56.64-3.29,1.62-6.34,3.61-8.46,6.75a25.65,25.65,0,0,0-3.68,8.28,44.9,44.9,0,0,0-.93,15.66,4.13,4.13,0,0,1-1.09-.42,31.21,31.21,0,0,0-20-6.7,9.13,9.13,0,0,1-3.89-.76,10.51,10.51,0,0,0-2.1-.58,169.34,169.34,0,0,0-20.53-2.91,93.07,93.07,0,0,0-31.62,4.19c-.35.13-.81,0-1.55-.12,2.38-3.52,4.56-6.71,6.71-9.93,9.64-14.37,18.29-29.27,24.93-45.29A193.91,193.91,0,0,0,657.42,604a187.1,187.1,0,0,0,3.21-33c0-8.27.15-16.55-.17-24.82-.25-6.42-1.06-12.83-1.73-19.24a8,8,0,0,1,1.21-5.47,74.74,74.74,0,0,0,11.35-33.51,78,78,0,0,0-2.41-27.82,16.17,16.17,0,0,1-.59-6.13,69.4,69.4,0,0,0-.47-17.1,8,8,0,0,1,.72-4.6c1.1-2.3,2-4.68,3-7.06A235.58,235.58,0,0,0,681,393.11a262.08,262.08,0,0,0,4.93-29.42,165.2,165.2,0,0,0,1-17.11,154.45,154.45,0,0,0-2.13-29.75A96.44,96.44,0,0,0,674.44,287c-.41-.72-.72-1.49-1.09-2.26.46-.62.8-1.11,1.18-1.57,2.84-3.49,5.73-6.94,8.52-10.47a319.67,319.67,0,0,0,28.06-41.31,182.87,182.87,0,0,0,16.47-38,107.42,107.42,0,0,0,4.61-26.12,137.68,137.68,0,0,0-2.9-34,134,134,0,0,0-28-58.62,112.53,112.53,0,0,0-36.12-29.11,93.64,93.64,0,0,0-41-10.16,135.85,135.85,0,0,0-20.35,1.31c-4.56.61-9.09,1.56-13.58,2.62A118.45,118.45,0,0,0,551.1,56.39,128.27,128.27,0,0,0,522.69,83a107.16,107.16,0,0,0-15.28,25.17c-.38.88-.8,1.74-1.2,2.61-1.29-.51-1.45-1.73-1.92-2.66A159.68,159.68,0,0,0,480,72.7,128.66,128.66,0,0,0,436.28,41a130.88,130.88,0,0,0-36.09-9.66,139.46,139.46,0,0,0-17.1-.8,100.51,100.51,0,0,0-22,2.58,120.57,120.57,0,0,0-34.48,13.44A129.58,129.58,0,0,0,290.76,76.7a123.93,123.93,0,0,0-24.21,46.54,107.62,107.62,0,0,0-3.87,23.32,167,167,0,0,0,1.11,30.22,209.34,209.34,0,0,0,5.39,27.11,250.36,250.36,0,0,0,21.07,52.29,321.58,321.58,0,0,0,24,38.31c.84,1.16,1.63,2.37,2.43,3.53-.76,1.09-1.37,2-2,2.88a138.87,138.87,0,0,0-18.78,35.68,146.45,146.45,0,0,0-7.93,34.71c-.6,6-1.11,12.1-1.13,18.18,0,3.16.41,6.31.45,9.47a112.68,112.68,0,0,0,1.49,15.23,141.82,141.82,0,0,0,8.09,30.92c.79,2,1.51,4.07,2.31,6.23-1,1-1.87,2-2.8,3-12.77,13-25.38,26.23-37.3,40.06a332.38,332.38,0,0,0-27.13,35.72,206.76,206.76,0,0,0-19.44,37.47,185.29,185.29,0,0,0-9.89,35.36,206.45,206.45,0,0,0-2.79,26.46,223,223,0,0,0,.61,27.35c.17,2.22.77,2.87,3.1,3.27a152.23,152.23,0,0,0,19.17,2.08A103.11,103.11,0,0,0,249.48,660a124.21,124.21,0,0,0,20.08-6.44,3.47,3.47,0,0,0,2.46-3.19c.69-6.53,1.55-13,2.3-19.56.54-4.7,1-9.41,1.49-14.12.18-1.68.4-3.37.61-5,.08-.57,0-1.24,1-1.57a20.78,20.78,0,0,1,3.12,2.75q9.9,9.45,19.77,18.94c.78.76,1.62,1.47,2.47,2.15a2,2,0,0,0,2.39.2c.54-.29,1.09-.55,1.62-.84a132,132,0,0,0,23.45-16.68,140.17,140.17,0,0,0,26.86-32.51,220.13,220.13,0,0,0,11.35-21.62c.43-.94.51-2.21,1.95-2.53.46.29,1,.58,1.48.93a66.45,66.45,0,0,1,16.36,16.5,111.76,111.76,0,0,1,12.18,23.6,6.92,6.92,0,0,1,.21,4.27A117.27,117.27,0,0,1,396,621.27c-3.37,8.85-6.95,17.63-10.56,26.39-4.88,11.83-8.94,23.86-9.92,37.68-1.17-1.36-1.79-2.05-2.37-2.77a46.12,46.12,0,0,0-18.75-14.08,49.46,49.46,0,0,0-32.42-2.38,42.69,42.69,0,0,0-25.67,18.6,15.86,15.86,0,0,1-2.13,3.06c-.38.06-.52.13-.61.09-.89-.4-1.77-.8-2.64-1.23a27.72,27.72,0,0,0-17.44-2.07c-11,2-19.22,8.38-25.33,17.59-4.22,6.37-4.93,13.38-3.18,20.65a31.79,31.79,0,0,0,7.89,14.2c.44.47,1.33.81.73,1.91-.76,0-1.61,0-2.45,0a36.1,36.1,0,0,0-13.54,2.42c-5.8,2.12-10.49,5.73-13.24,11.36a37.11,37.11,0,0,0-2,28.36c1.55,4.91,5,8.25,9.7,10.31a29.23,29.23,0,0,0,16.09,1.83c1.54-.21,3.07-.53,4.73-.83.06,1,.14,1.85.16,2.69a43.27,43.27,0,0,0,.63,7.61c3.28,17.17,13,29,29.22,35.43,8.93,3.53,18.31,4.64,27.84,4.73a60.25,60.25,0,0,0,14.84-1.45,47.49,47.49,0,0,0,24.16-14.18,14.74,14.74,0,0,1,2.41-2.2c5-3.39,10-6.9,15.23-10A85,85,0,0,1,387,806.3a27.56,27.56,0,0,1,12.62-.74,61.72,61.72,0,0,1,16.94,5.37c6.88,3.35,13.74,6.76,20.65,10,12.84,6.08,26.49,8.63,40.58,9.13a118,118,0,0,0,12.75-.49c5.22-.38,10.41-.94,15.59-1.65,7.68-1.06,15.27-2.68,22.86-4.24,10.93-2.26,21.89-4.4,32.85-6.5,3.56-.69,7.16-1.25,10.77-1.65,4.71-.51,9.44-.83,14.16-1.16a49.59,49.59,0,0,1,6.56-.14c8.35.53,16.69,1,25,2.51a118.15,118.15,0,0,1,28.46,8.74c5.19,2.38,10.32,4.88,15.52,7.25a60,60,0,0,0,14.15,4.59,56.65,56.65,0,0,0,19.61-.11c18.81-3.18,32.36-13.24,39.78-31a81.38,81.38,0,0,0,6-36.73c-.06-1.09,0-2.18,0-3.43a13.78,13.78,0,0,1,1.34-1A47,47,0,0,0,754.4,756a32.19,32.19,0,0,0,8-14.92A33.49,33.49,0,0,0,762.89,730.91ZM654.64,581.14a192.47,192.47,0,0,1-15.45,64.17,214.89,214.89,0,0,1-16.13,30.2c-5,7.78-10.25,15.38-15.4,23a6.9,6.9,0,0,1-.93.94c-.92-.28-.84-1-.91-1.53-2.18-16.36-7-32-13-47.32-4.13-10.52-8.8-20.81-13.66-31a19.59,19.59,0,0,1-1.83-7.71c-.55-11,2.94-20.83,9-29.83,2.92-4.34,6.16-8.45,9.17-12.72a5.92,5.92,0,0,1,3.27-2.12,147.1,147.1,0,0,0,16.44-6.94,111,111,0,0,0,36.23-27.73,21.49,21.49,0,0,1,1.72-1.59,20.66,20.66,0,0,1,.56,2.39A301,301,0,0,1,654.64,581.14ZM527,572c-6.79-.54-13.59-1-20.32-2-5.39-.76-10.75-1.83-16.07-3a270.36,270.36,0,0,1-38.7-11.5c-22.39-8.49-43.5-19.34-62.33-34.31A166.9,166.9,0,0,1,370,503.16c-1.51-1.66-2.39-3.19-1.76-5.52a47.35,47.35,0,0,0,.79-5.75,17.36,17.36,0,0,1,3.7-8c1.08,1.29,2,2.27,2.75,3.3a190.58,190.58,0,0,0,72.81,58.12A188.65,188.65,0,0,0,494,559.62c5.61,1,11.27,1.84,16.94,2.41a193.62,193.62,0,0,0,26.6.68c4.23-.16,8.44-.87,12.67-1.22a139.86,139.86,0,0,0,19.41-3.12,168.26,168.26,0,0,0,53.63-22c1.22-.78,2.45-1.53,3.55-2.21a33.34,33.34,0,0,1,8.95,6.47c-.11,1.11-1,1.59-1.75,2.18a114.53,114.53,0,0,1-18.39,11.8,153.38,153.38,0,0,1-38,13.5A193,193,0,0,1,527,572Zm12.28,5.58a110.55,110.55,0,0,0,6.38,25.73q6,16.05,12.42,31.91c6.22,15.31,12.38,30.62,17.4,46.37A201.15,201.15,0,0,1,582.19,708,95.58,95.58,0,0,1,584,722.84c0,1.33.32,2.66.34,4,.25,12.48-1,24.74-5.46,36.51-5.72,14.93-15.7,26.12-29.59,33.89a98.58,98.58,0,0,1-29.76,10.39,140,140,0,0,1-35.21,2c-14.17-.85-27.87-3.86-40.56-10.52-17.85-9.37-29.86-23.8-36.56-42.71a90.36,90.36,0,0,1-4.58-19.83c-.83-7.13-1.54-14.28-1.07-21.45.42-6.29.77-12.59,1.71-18.86,1.17-7.81,2.62-15.55,4.51-23.21,3.61-14.64,8.54-28.87,13.62-43,4.15-11.55,8.35-23.07,12.36-34.66a145.36,145.36,0,0,0,5.89-21.78c.87-4.78,2-9.52,1.85-14.43a11.81,11.81,0,0,1,.32-1.93c1.59.52,3,.91,4.3,1.43a293.19,293.19,0,0,0,42.39,13,204.43,204.43,0,0,0,21.86,3.86c5.67.67,11.33,1.22,17,1.38C531.29,577,535.15,577.31,539.25,577.56Zm69-47.2a20.5,20.5,0,0,0-19-.8,22,22,0,0,0-9.76,9l-1.94,3.17c-3.47-1.75-6.71-3.81-10.64-3.71s-7.75-.43-11.55.94a25.84,25.84,0,0,0-9.24,6.17c-10.74-11.85-23-11.65-34.88-2.39-.65-.64-1.32-1.29-2-2-2.74-2.82-5.7-5.25-9.55-6.47-6.52-2.08-12.69-1.73-18.42,2.3a8.06,8.06,0,0,1-1,.5,3.74,3.74,0,0,1-.55.13c-.48-.55-1.08-1.13-1.56-1.79a23.9,23.9,0,0,0-16.93-10.26,19.34,19.34,0,0,0-10,1.67c-1.43.6-2.87,1.18-4.47,1.83-.64-1.2-1.21-2.25-1.77-3.31a24.06,24.06,0,0,0-8.74-9.57,11.43,11.43,0,0,0-4-1.69,25.54,25.54,0,0,0-11.2.45c-2.21.65-4.43,1.27-6.59,2.07a3.13,3.13,0,0,1-3.38-.51c-2.05-1.72-4.17-3.36-6.14-5.16a167.1,167.1,0,0,1-15.47-15.45c-2.68-3.15-5.39-6.26-8.1-9.39a9.43,9.43,0,0,1-2.06-3.25c1.09-.37,1.51.38,2,.75A160.56,160.56,0,0,0,396.25,493a118.83,118.83,0,0,0,16,7,144.7,144.7,0,0,0,24.94,6.58q8.41,1.51,16.92,2.39c3.15.33,6.34.3,9.43.77,5,.75,9.95.27,14.9,1a60.79,60.79,0,0,0,7.28.26l17.14.45c3.4.09,6.8.14,10.21.27,3.88.15,7.76.36,11.65.55l1.45.08a200,200,0,0,1,29,2.9c7.05,1.23,14.09,2.56,21.15,3.75,6.33,1.07,12.7,1.94,19,3a128.17,128.17,0,0,0,26.54,1.37c2.54-.09,5.08-.45,7.62-.66.59,0,1.19,0,1.78,0a78.64,78.64,0,0,1-16.35,11.65C612.58,533,610.46,531.57,608.22,530.36Zm2.8,7c-1.49.87-2.49,1.53-3.55,2.06a172.4,172.4,0,0,1-39.7,14A157,157,0,0,1,543.3,557a171.29,171.29,0,0,1-21.5.36c-6.32-.39-12.61-.78-18.88-1.64a188.25,188.25,0,0,1-34.26-8.12A185.26,185.26,0,0,1,421,523.51c-1-.7-2-1.43-2.92-2.17-.17-.13-.23-.4-.41-.74a19.91,19.91,0,0,1,6.81-2.23,33.07,33.07,0,0,1,4.36-.22c3.13-.16,5.6,1.21,7.84,3.24a27.94,27.94,0,0,1,6.21,8.92c.47,1,.86,2,1.39,3a1.72,1.72,0,0,0,2.48.74c.88-.42,1.68-1,2.54-1.44a26.11,26.11,0,0,1,7.84-2.83A15.37,15.37,0,0,1,469.82,533a27.1,27.1,0,0,1,5.95,6.37c.61.9,1.17,1.85,1.81,2.73.9,1.24,1.79,1.28,3.08.29a31,31,0,0,1,4.11-3c6-3.21,11.84-3,17.43,1.07a29.31,29.31,0,0,1,6,5.78c.45.58.87,1.18,1.35,1.72,1,1.16,1.91,1.21,3.12.15s2.13-2,3.25-2.93a19.88,19.88,0,0,1,6.3-3.58,16.32,16.32,0,0,1,14,1.3,22.86,22.86,0,0,1,6.59,5.68c.45.57.85,1.19,1.33,1.74,1,1.19,1.88,1.18,3,0,.26-.26.49-.55.73-.82a20.32,20.32,0,0,1,17.91-7,18.73,18.73,0,0,1,9.1,3.41c.5.35,1,.74,1.44,1.11,2.26,1.73,3.2,1.52,4.28-1.2a23.64,23.64,0,0,1,7.95-10.67,14.51,14.51,0,0,1,13.44-2.27A28.14,28.14,0,0,1,611,537.36Zm42.09-14.63a84.73,84.73,0,0,1-13,14.81l-8.08-6.2c.64-1.46,1.92-2,2.9-2.82,3.51-3,7-6,10.57-9a2.87,2.87,0,0,0,1.22-2.14,2.32,2.32,0,0,0-2-2.61,6.36,6.36,0,0,0-2.49.28,87.44,87.44,0,0,1-15.33,3.14,63.85,63.85,0,0,1-9.48.45c-4.73-.1-9.47-.34-14.18-.76-4.24-.38-8.46-1-12.66-1.67-6.22-1-12.4-2.26-18.61-3.35-6.46-1.13-12.93-2.21-19.4-3.3-14-2.36-28-2.84-42.13-3.3-7.06-.24-14.12-.23-21.17-.49-7.41-.29-14.82-.75-22.22-1.18-4.13-.24-8.25-.47-12.36-.88s-8-.94-11.93-1.55a149.75,149.75,0,0,1-29.29-7.27,108.32,108.32,0,0,1-34.7-20.38,118.91,118.91,0,0,1-18.25-20.31,6.91,6.91,0,0,0-2.09-1.94,2.14,2.14,0,0,0-3.21,2.07,8.53,8.53,0,0,0,1,3.06q4.81,8.38,9.74,16.69c1,1.77,2.18,3.47,3.33,5.29a29.68,29.68,0,0,0-6.16,15.13,17.47,17.47,0,0,1-1.67-1.64c-7.78-10.76-13.54-22.47-16.3-35.53a62.27,62.27,0,0,1-1.65-13,7.69,7.69,0,0,1,1.09-4.13c4.32-7.19,8.55-14.44,12.81-21.66.24-.41.52-.8.75-1.16.81,0,.77.54.8,1,1.27,19.14,9.61,34.91,23,48.28A88.49,88.49,0,0,0,404.33,483a62.22,62.22,0,0,0,21.83,6.68A36.32,36.32,0,0,0,445,486.47a54.57,54.57,0,0,0,19.23-14.17,76,76,0,0,0,10.87-16.36c.59-1.19,1.18-2.38,1.73-3.51,1.2-.09,1.24.83,1.49,1.43a61.58,61.58,0,0,0,5.55,10.65c10,15.08,23.72,25.22,41.18,30.08a53.17,53.17,0,0,0,19.13,2,49.55,49.55,0,0,0,15.06-4.08A61.47,61.47,0,0,0,583,474.84a14.12,14.12,0,0,1,1-1c.07-.07.23-.05.37-.08,1,1,.67,2.23.77,3.41.52,6.06,1.28,12.08,3.45,17.83a24.81,24.81,0,0,0,7.57,10.55,31.21,31.21,0,0,0,16.14,7.09c16.08,2.06,29-3.88,39.69-15.56,5.58-6.12,9.23-13.38,11.94-21.14.32-.92.62-1.84,1-2.75.08-.19.32-.32.74-.71.23,2.48.63,4.77.64,7.05A73.54,73.54,0,0,1,653.11,522.73ZM402.32,289.83a9.34,9.34,0,0,0-.39-1.4,2,2,0,0,0-2.56-1.44c-7.11,1.41-12.69,4.81-15.38,11.92-1.12,2.95-2.2,5.92-3.31,8.88-.29.78-.62,1.56-.88,2.21a2.53,2.53,0,0,1-3.12-.72c-1-1.07-2-2.14-2.95-3.24a405.88,405.88,0,0,1-36.25-47.55,287.81,287.81,0,0,1-24.78-46.24,183.72,183.72,0,0,1-9.32-28.72,113.39,113.39,0,0,1-2.76-33.33,89.42,89.42,0,0,1,6.63-29,80,80,0,0,1,24.4-32.24A86.59,86.59,0,0,1,364.91,73a100.12,100.12,0,0,1,23.82-3,79.14,79.14,0,0,1,27.48,4.78,105.78,105.78,0,0,1,29.71,16.8C460.48,103,472.51,116.84,483.09,132a237.12,237.12,0,0,1,20.4,34.92,10.57,10.57,0,0,0,1.26,2.2,2.3,2.3,0,0,0,3.76-.18,25.32,25.32,0,0,0,1.23-2.23c3.15-5.62,6.22-11.29,9.47-16.85a253.58,253.58,0,0,1,17.23-25.32A201.82,201.82,0,0,1,558.9,99.61a118.67,118.67,0,0,1,29.75-20.87c13.88-6.69,28.42-9.1,43.62-6.41a63,63,0,0,1,26.21,11.32,72.75,72.75,0,0,1,18.77,20.21,96.39,96.39,0,0,1,13.45,36.31,111.22,111.22,0,0,1,1.19,22.53,79,79,0,0,1-2.45,15.08A139,139,0,0,1,676,211.92,252.75,252.75,0,0,1,643.4,258a325,325,0,0,1-26.77,27.4c-.35.32-.74.6-1.26,1-1.89-.7-3.77-1.53-5.73-2.1s-3.8-.81-5.71-1.2c-.73-1.12-.41-2.37-.45-3.55A31.47,31.47,0,0,0,599.19,264a29.88,29.88,0,0,0-3.12-4,6.07,6.07,0,0,0-1.75-1.29,3.87,3.87,0,0,0-5.2,1.08,18.28,18.28,0,0,0-3.82,9.32,25.9,25.9,0,0,0,1.49,12.9c.6,1.58,1.18,3.17,1.75,4.72-2,2.37-4.13,4.54-5.86,7a17.42,17.42,0,0,0-2.92,8.92,84.45,84.45,0,0,0,.3,9.26c-1-.53-1.91-.9-2.71-1.39a94.14,94.14,0,0,0-34.94-13c-3.24-.51-6.51-.79-9.77-1.21-1.56-.21-3.1-.52-5-.84a9.49,9.49,0,0,1,1.29-1.35c2.77-1.77,5.58-3.47,8.34-5.24,3-1.92,3-3.86.16-5.86a26.38,26.38,0,0,0-14.34-4.72c-1.7-.06-3.4.07-5.1.11h-1.66c-.33-1,.33-1.31.73-1.68,1.79-1.64,3.63-3.23,5.43-4.87.81-.74,1.59-1.51,2.33-2.31a2.42,2.42,0,0,0,.34-2.73c-.37-.9-1.23-1-2.13-1.08a44.25,44.25,0,0,0-27.38,7.1,51.13,51.13,0,0,0-8.8,7.06c-.59.6-1.27,1.11-2.11,1.84-.54-1-1-1.78-1.42-2.63-.7-1.55-1.26-3.17-2-4.69a2.35,2.35,0,0,0-3-1.4,11.77,11.77,0,0,0-2.36.95,39.92,39.92,0,0,0-14,12c-1.16,1.56-2.21,3.2-3.29,4.82-.86,1.32-1.68,2.67-2.55,4.05a16.67,16.67,0,0,1-2.92,0c-8.1-1.51-15.71.06-22.89,3.81A21,21,0,0,0,420,309.55a4.6,4.6,0,0,1-2.4,2.56,64.5,64.5,0,0,0-17.2,12.77l-4.71,4.77c-1.33-1.87-.79-4-1.59-5.74s-1.41-3.35-2.18-5.21c1.76-2.6,3.63-5.28,5.41-8a63.79,63.79,0,0,0,3.55-5.94C403.31,300,403.45,295,402.32,289.83ZM588.92,336a2.22,2.22,0,0,0,3.19.66,7.3,7.3,0,0,0,1.35-1.2c4.33-4.7,9.68-5.44,15.38-3.42,7.32,2.59,12.39,7.78,15.68,15.05-1.3.1-2-.67-2.68-1.19a19.79,19.79,0,0,0-5.76-3.09c-3.81-1.2-7.17-.57-10,2.42-3.24,3.43-5.21,7.6-6.92,11.9a151.91,151.91,0,0,0-7.74,26.92c-1.24,6.31-2.13,12.69-3.18,19-.31,1.89-.61,3.79-.91,5.64-.88.21-1.18-.4-1.54-.86C577.42,397.06,566,391.33,553,388.35a75.72,75.72,0,0,0-25-1.27c-11.9,1.26-23,5.05-32.66,12.37-2.12,1.61-4,3.52-6,5.31-.69.62-1.34,1.3-2.36,2.29a15,15,0,0,1-.25-1.79c0-1.58,0-3.16,0-4.75a165,165,0,0,0-1.22-18.17,138.94,138.94,0,0,0-3.83-20.76,102.33,102.33,0,0,0-13-30,58.16,58.16,0,0,0-12.93-14.26A38.73,38.73,0,0,0,435.47,309a36.47,36.47,0,0,0-5.8.21c-.7,0-1.4.14-2.52.26a12.17,12.17,0,0,1,1.16-1.79,22.37,22.37,0,0,1,8.54-5.44,31.94,31.94,0,0,1,8.85-2.07c6.33-.48,12.36.63,17.66,4.41a16.62,16.62,0,0,1,4.39,4.34,22.91,22.91,0,0,0,2,2.62,2.09,2.09,0,0,0,2.3.72,2.67,2.67,0,0,0,1.88-2.43,4.2,4.2,0,0,0-.93-2.68,26.08,26.08,0,0,0-8.9-8.48c-.82-.49-1.69-.92-2.51-1.37.86-3,3-6.32,6.58-10.36,3.44-3.88,5.75-5.64,9.45-7.19,1,.79,1.22,2.06,1.71,3.15.69,1.55,1.22,3.18,1.95,4.71a2.61,2.61,0,0,0,4.23.9,31.45,31.45,0,0,0,2.5-2.66,43.54,43.54,0,0,1,16.17-11.58,31.53,31.53,0,0,1,10.9-2.6,22.27,22.27,0,0,1-1.63,2.19c-2.1,2.2-4.25,4.35-6.37,6.53a23.76,23.76,0,0,0-1.74,1.88,2.19,2.19,0,0,0-.22,3,2.35,2.35,0,0,0,2.83,1c1.76-.48,3.54-.87,5.3-1.33a34.12,34.12,0,0,1,11.2-1,20.46,20.46,0,0,1,8.54,2.53c-1,.77-1.62,1.32-2.31,1.76-3.28,2.09-6.58,4.14-9.88,6.21-.52.32-1,.64-1.54,1a2.39,2.39,0,0,0-1.13,2.5,2.34,2.34,0,0,0,1.88,2,27.29,27.29,0,0,0,3.22.62c5.44.6,10.9,1,16.32,1.75A87.91,87.91,0,0,1,575,314.83a148.24,148.24,0,0,1,16.55,11.95c.63.53,1.21,1.14,2,1.87-.85.76-1.57,1.35-2.23,2a28.08,28.08,0,0,0-2.45,2.67A2,2,0,0,0,588.92,336Zm0,114-.12,0c.62-9.34,1-18.7,1.92-28,.74-7.84,1.92-15.63,3.17-23.42a250.84,250.84,0,0,1,6.68-30.93,72.92,72.92,0,0,1,5.31-13.54,32.54,32.54,0,0,1,2.93-4.6c2.29-3,4.22-3.14,7.23-1.29a36.36,36.36,0,0,1,5.2,4,71.4,71.4,0,0,1,10.16,11.91,181.41,181.41,0,0,1,18.2,32.76,178,178,0,0,1,9.87,28.54c2.09,8.63,3.77,17.35,3.2,26.3-.69,10.61-2.62,20.94-7.41,30.58S643.68,499.4,634,504.13c-8.15,4-16.63,5.2-25.5,2.64a26.08,26.08,0,0,1-9-4.65,17.89,17.89,0,0,1-6.16-8.42,73.44,73.44,0,0,1-3.14-14.19,164,164,0,0,1-1.35-23.65C588.92,453.92,588.88,452,588.88,450Zm-76,.11c-1.73-6.55-5.63-11.43-12.3-13.81a23.17,23.17,0,0,0-6.72-1.37,13.45,13.45,0,0,0-10.28,3.8l-1.8,1.67c-1-.74-.31-1.49-.16-2a123.05,123.05,0,0,0,3.54-18.23,10.06,10.06,0,0,1,1.77-4.32A50,50,0,0,1,511.85,396a63.8,63.8,0,0,1,20.25-4.11c5.48-.16,10.95-.28,16.36.72,8.68,1.62,16.88,4.49,24.14,9.69a39.52,39.52,0,0,1,12.13,13.38,10,10,0,0,1,1.21,5.93c-.45,4.59-.81,9.2-1.14,13.8-.15,2.06-.11,4.13-.18,6.2a10,10,0,0,1-.24,1.8c0,.2-.3.35-.69.78a19,19,0,0,1-2.19-.68c-4.36-1.87-8.31-.79-12.09,1.6-3.52,2.23-5.62,5.67-7.38,9.28A72.4,72.4,0,0,0,556.78,471a130.58,130.58,0,0,0-2.18,15.86,2.31,2.31,0,0,1-1.79,2.4,64.17,64.17,0,0,1-7.74,1.89,47,47,0,0,1-15.22-.9,83.18,83.18,0,0,1-15.08-4.94,5.75,5.75,0,0,1-.65-3.63c.15-5.71.29-11.42.46-17.13A50.35,50.35,0,0,0,512.86,450.14Zm-109-120.84a72,72,0,0,1,13.24-10.83,30.5,30.5,0,0,1,14.67-5,28.37,28.37,0,0,1,10.37,1.6c6.92,2.29,12.41,6.6,17.08,12a79.12,79.12,0,0,1,13.68,24,120.35,120.35,0,0,1,7.45,31.46c.57,6.05,1,12.11,1.34,16-.43,17.05-2.07,31.73-7.23,45.84a76.92,76.92,0,0,1-12.88,23.16,51.28,51.28,0,0,1-18,14,33.13,33.13,0,0,1-21.31,2.32c-12.25-2.53-22.73-8.44-32.09-16.45a79.29,79.29,0,0,1-17.78-21.59,63.4,63.4,0,0,1-7.54-21.58,61.78,61.78,0,0,1,.88-21.39c3.84-19.2,11.54-36.79,22.08-53.21A124.62,124.62,0,0,1,403.85,329.3ZM677.39,310a131.68,131.68,0,0,1,3.09,18.3,166.34,166.34,0,0,1,.39,27.69,213.43,213.43,0,0,1-4.15,30.67A241,241,0,0,1,667.17,421c-.45,1.21-.57,2.62-1.91,3.64-.34-.9-.68-1.63-.89-2.41a198.74,198.74,0,0,0-18.63-45.37,144,144,0,0,0-12.52-19.22,6,6,0,0,1-1.22-3,35.63,35.63,0,0,0-5.89-15.53,33.74,33.74,0,0,0-12.86-11.05,21.42,21.42,0,0,0-12.37-2.29,4.74,4.74,0,0,1-4-1.18c-2.4-2.06-4.91-4-7.33-6a6.06,6.06,0,0,1-1.67-1.87,24.64,24.64,0,0,1-2.64-14.84,14.76,14.76,0,0,1,5.39-9.22c.16-.14.45-.11,1-.21l2.37,3c3.17,4,6.62,2.89,8.18-1.4.33-.9.48-1.87.75-2.8s.56-1.8.88-2.81a19.91,19.91,0,0,1,8.76,2.57,24.94,24.94,0,0,1,8.81,8.54,40.37,40.37,0,0,1,5.7,18.27,50.19,50.19,0,0,1,.05,12.37,4.42,4.42,0,0,0,0,1.09,2.49,2.49,0,0,0,3,2.43,2.07,2.07,0,0,0,2-1.74c.32-1.79.55-3.59.88-5.73a492.67,492.67,0,0,0,35.63-36.43c1.44.43,1.7,1.61,2.17,2.52A82.58,82.58,0,0,1,677.39,310ZM297.24,257.56a270.15,270.15,0,0,1-18.1-40.17A196.47,196.47,0,0,1,271.5,190a191.23,191.23,0,0,1-3.11-22,125.38,125.38,0,0,1,1.3-33.79,126.88,126.88,0,0,1,5.05-19,116.63,116.63,0,0,1,12.7-25.36A123.6,123.6,0,0,1,327,52.23a117,117,0,0,1,29.67-12.85,101.3,101.3,0,0,1,16.8-3.22,118.41,118.41,0,0,1,14.93-.59,125.65,125.65,0,0,1,17.41,1.62,118.12,118.12,0,0,1,28.87,8.67,114.76,114.76,0,0,1,24.6,14.85,138.53,138.53,0,0,1,26.54,27.48,147.56,147.56,0,0,1,16.31,28,18.68,18.68,0,0,0,1.1,2.3c1.18,1.94,3.22,2,4.32,0a19.74,19.74,0,0,0,1.18-2.66,119.8,119.8,0,0,1,15.15-26.94,118.86,118.86,0,0,1,23.91-24.44,110.72,110.72,0,0,1,34.75-18,147.3,147.3,0,0,1,20.57-4.74c2.76-.44,5.55-.7,8.34-.9a109.13,109.13,0,0,1,23.27.42,91.71,91.71,0,0,1,32.14,11.17,107.22,107.22,0,0,1,30.35,25.9A127.74,127.74,0,0,1,715.45,108a136.11,136.11,0,0,1,9.14,29.9A93.18,93.18,0,0,1,726.41,152c.13,3.39.67,6.77.54,10.18a130.43,130.43,0,0,1-1.79,17.38c-2.26,12.93-6.81,25.07-12.33,36.85a237.14,237.14,0,0,1-14.63,26.06c-9.93,15.66-21.44,30.1-33.61,44-9.44,10.82-19.54,21-29.83,31.05a14.66,14.66,0,0,1-1.61,1.15,11.89,11.89,0,0,1-1-4.33,42.24,42.24,0,0,0-5-15.89,27.54,27.54,0,0,0-4.92-6.73c-.6-.56-1.09-1.25-1.8-2.07.81-.89,1.46-1.73,2.24-2.44,6.58-6,12.74-12.35,18.73-18.9,14.55-15.94,27.73-32.93,38.39-51.75a144.65,144.65,0,0,0,14.73-36,100.39,100.39,0,0,0,2.64-32.54,107,107,0,0,0-5.27-26c-4.52-13.32-11.41-25.24-21.5-35.13a70.23,70.23,0,0,0-53.54-20.51,76.81,76.81,0,0,0-28.78,7.36,123.15,123.15,0,0,0-31.93,22.13c-14.6,13.61-26.71,29.25-37.42,46-3.6,5.64-6.89,11.45-10,17.36a19.75,19.75,0,0,1-1.43,2c-1.22-.45-1.43-1.47-1.87-2.27-2.95-5.31-5.73-10.72-8.85-15.93A235.39,235.39,0,0,0,474,111.76,182.69,182.69,0,0,0,457.56,94.7a122.58,122.58,0,0,0-30-20.49,92.33,92.33,0,0,0-25.66-7.93,103,103,0,0,0-16-.75,91.81,91.81,0,0,0-25.11,4,89.55,89.55,0,0,0-36.63,20.33A82.16,82.16,0,0,0,301.83,124a96.33,96.33,0,0,0-4.74,19.82,117,117,0,0,0-.41,24.75,151.09,151.09,0,0,0,9.8,40.23,240.63,240.63,0,0,0,15.95,33.55,416.51,416.51,0,0,0,33.45,49.53c4.56,5.85,9.51,11.38,14.27,17.07.61.73,1.12,1.53,1.85,2.53-9.81,3.38-16.11,10.1-19.88,19.58a10.18,10.18,0,0,1-2-1.24,361,361,0,0,1-30.85-37.42A331.32,331.32,0,0,1,297.24,257.56ZM293.4,411.15a156.74,156.74,0,0,1,5.22-66.74c5.15-16.91,14.1-33.36,21.09-41.48,1.39.78,2.15,2.19,3.08,3.39q8.58,11.13,18.14,21.42c2.57,2.77,5.26,5.41,7.88,8.12.42.43.79.91,1.26,1.46a23.65,23.65,0,0,0-.43,2.82,2.61,2.61,0,0,0,3.2,2.94,1.86,1.86,0,0,0,1.66-1.23,14.9,14.9,0,0,0,.7-2.8A30,30,0,0,1,363,322.48a20.48,20.48,0,0,1,11.24-6.34,7.52,7.52,0,0,1,3.77,0c0,.67,0,1.24-.09,1.8-.22,1.56-.55,3.11-.69,4.68a10.5,10.5,0,0,0,.19,2.9c.56,2.66,2.65,3.7,5.26,2.43a22.34,22.34,0,0,0,3.54-2.55c.76-.58,1.46-1.23,2.38-2a10,10,0,0,1,1.05,2,39.46,39.46,0,0,1,1,5.36c.47,5.12.37,5.6-2.69,9.78a160.09,160.09,0,0,0-15.67,27.11,27,27,0,0,1-3.25,5.25c-8.56,10.91-17.37,21.62-26.57,32-7.51,8.45-15.24,16.71-22.94,25-4.47,4.81-9.05,9.52-13.61,14.25-.82.85-1.44,2-2.71,2.31C299.9,441.43,295,423.15,293.4,411.15ZM208.8,598.21c4.21-21,12.3-40.37,23.29-58.64a285.9,285.9,0,0,1,22.8-32.09c11.09-13.73,23.07-26.67,35.27-39.4,11.19-11.69,22.52-23.23,33.62-35,12.94-13.71,25.6-27.68,37.51-42.31.71-.87,1.24-2,2.55-2.5-1,4.29-1.92,8.4-2.88,12.51a5.63,5.63,0,0,1-.5,1.37c-4.75,8.75-9.32,17.61-14.32,26.22a340.31,340.31,0,0,1-33.32,46.94c-11.37,13.65-23.61,26.5-36,39.26-7.45,7.69-14.9,15.38-22.16,23.25a293.17,293.17,0,0,0-20.79,24.92c-10,13.57-18.35,28.06-24,44-1,2.74-1.81,5.53-2.75,8.29-.27.78-.68,1.51-1.34,3A179.64,179.64,0,0,1,208.8,598.21Zm157.77-45.13a200.38,200.38,0,0,1-16.74,32.33,132.08,132.08,0,0,1-43.69,41.7c-.51.31-1.06.56-1.72.9-.68-.53-1.38-1-2-1.56Q290.22,614.67,278,602.87c-.35-.33-.68-.7-1-1-2.13-1.78-4.4-1-4.87,1.65-.35,2-.55,4.09-.77,6.14-.54,5-1,9.9-1.58,14.85q-1.1,10-2.24,19.93c-.15,1.32-.39,2.63-.6,4-19.5,8.86-39.7,9.6-60.54,6.29a7.86,7.86,0,0,1-.42-2c.14-2.8.28-5.6.6-8.37a177.24,177.24,0,0,1,4.33-24,152.63,152.63,0,0,1,21.23-46.93,247.71,247.71,0,0,1,21.42-27.22c10.86-12.17,22.44-23.65,33.79-35.35a534.66,534.66,0,0,0,36.08-40.63c4.15-5.25,8-10.68,12.06-16,.86-1.16,1.68-2.34,2.93-4.08a17.93,17.93,0,0,1,.76,2.36A84.82,84.82,0,0,0,349,482.45a126.88,126.88,0,0,0,27.21,34.48c.81.73,1.61,1.47,2.49,2.28a7.28,7.28,0,0,1-.2,1.77C374.64,531.72,371,542.56,366.57,553.08ZM752.84,750.92a47.83,47.83,0,0,1-13,11.63c-1.22.78-2.42,1.58-3.71,2.41-.8-.41-.69-1.37-1-2.06a70.08,70.08,0,0,0-3.47-7.19c-6.81-10.64-17.79-11.42-26.43-6.91A31.43,31.43,0,0,0,693.44,760a44.68,44.68,0,0,0-7.45,24.4c0,5.9.64,11.62,3,17.08a27.82,27.82,0,0,0,4.66,7.36,18.9,18.9,0,0,0,22.56,4.9,30.9,30.9,0,0,0,13.54-11.86c1.46-2.22,2.57-4.68,3.82-7a4.56,4.56,0,0,1,1.34-1.8c-.17,1-.29,2-.54,3a51.9,51.9,0,0,1-11.71,22.78c-5.89,6.52-13.31,10.51-21.68,12.77a60.72,60.72,0,0,1-18.4,2.06,45.23,45.23,0,0,1-16.84-4.28c-3.87-1.75-7.7-3.59-11.52-5.46a129.48,129.48,0,0,0-35.87-11.75,157.89,157.89,0,0,0-35.61-2.06,232,232,0,0,0-31.35,4.37q-14.28,2.85-28.53,5.82a260.54,260.54,0,0,1-29.49,4.64,155.83,155.83,0,0,1-19.69.35A87.92,87.92,0,0,1,447,820a152,152,0,0,1-18.55-8.48c-6.58-3.4-13.24-6.63-20.43-8.67a72.78,72.78,0,0,0-12.49-2.36,26.67,26.67,0,0,0-9,1c-8.5,2-16.08,6.11-23.52,10.52-1.11.67-2.23,1.33-3.6,2.14-.17-1.51.7-2.33,1-3.3s.85-2,1.23-3,.7-2.07,1-3.11.67-2.07,1-3.17a28.48,28.48,0,0,0,2.95-1.39,68.14,68.14,0,0,0,6.41-4.15c11.55-9,10-25.59,2.25-33.84A23.93,23.93,0,0,0,361.64,755c-3.09-.55-6.25-.73-9.51-1.09-.47-.84.39-1.39.84-2a49.66,49.66,0,0,0,5.95-11.25c4.48-12.17.36-22.88-8.56-30.9A23.49,23.49,0,0,0,339.15,704a27.47,27.47,0,0,0-12.26.53,43.28,43.28,0,0,0-13.22,6,16.18,16.18,0,0,0-3,2.65,1.89,1.89,0,0,0,.09,2.65,2.36,2.36,0,0,0,2.91.81c1.17-.64,2.27-1.41,3.4-2.13a40,40,0,0,1,11.24-5.08c6.84-1.84,13-.7,18.31,4.09,5.71,5.14,9.14,11.34,8.53,19.26a30.23,30.23,0,0,1-4.47,13,56.38,56.38,0,0,1-6.51,8.78c-.32.37-.67.7-1,1a2.37,2.37,0,0,0-.52,3,2.54,2.54,0,0,0,2.72,1.4c1.09-.1,2.17-.27,3.26-.4,6-.72,11.89-.34,17.52,2.14a15.68,15.68,0,0,1,8.85,10.1,21.29,21.29,0,0,1,.63,10.46,15.36,15.36,0,0,1-4.33,7.86,25.28,25.28,0,0,1-8.46,5.61c-.67.29-1.35.55-2,.81a3.07,3.07,0,0,0-1.91,2.06c-.23.82-.49,1.63-.74,2.44a62,62,0,0,1-8.7,18,44.17,44.17,0,0,1-15,13.59,43.2,43.2,0,0,1-17.37,5,93.15,93.15,0,0,1-15.67-.19c-7.9-.74-15.55-2.51-22.61-6.39-10.57-5.81-16.85-14.81-19.72-26.32a47.67,47.67,0,0,1-1.45-14.48,7.93,7.93,0,0,0,0-1.09,2.56,2.56,0,0,0-3.16-2.63,18,18,0,0,0-2.1.54c-3.67.82-7.35,1.7-11.15,1.46a25.58,25.58,0,0,1-5.72-.92c-5.15-1.54-8.17-5.27-9.29-10.33a34,34,0,0,1,1.32-20.42,19.34,19.34,0,0,1,11.78-11.22,36.42,36.42,0,0,1,14.72-1.84c2.42.12,4.83.5,7.24.76a2.48,2.48,0,0,0,2.93-1.58,2.4,2.4,0,0,0-.81-2.93c-1.18-1.05-2.39-2.06-3.61-3.07a32.88,32.88,0,0,1-7.82-9.55c-4.66-8.48-4.39-16.81,1.43-24.65,4.69-6.32,10.63-11.05,18.42-13,6.46-1.57,12.78-1.21,18.74,2,5.41,2.94,8.38,7.59,9.3,13.62.09.59.06,1.22.2,1.8.42,1.77,1.62,2.71,3.06,2.48a2.59,2.59,0,0,0,2-3,31.38,31.38,0,0,0-.77-5,20.09,20.09,0,0,0-4.08-8.08c-.6-.75-1.15-1.54-1.85-2.48a35.4,35.4,0,0,1,1.63-3.19,37.66,37.66,0,0,1,26-17.74,45.19,45.19,0,0,1,29.7,4.31,37.56,37.56,0,0,1,17.63,18.3,20,20,0,0,1,1.86,7,163.11,163.11,0,0,0,5.92,32.94c.45,1.64.84,3.31,1.43,4.9a2.41,2.41,0,0,0,3.62,1.18,2,2,0,0,0,1.16-2.08,19.8,19.8,0,0,0-.51-2.12c-1.81-7.06-3.6-14.12-4.8-21.32a115.91,115.91,0,0,1-1.41-30.16,93.66,93.66,0,0,1,5.72-24c2.27-6,4.79-11.95,7.25-17.9,4.12-10,8.14-20,10.81-30.55A174.07,174.07,0,0,0,408,592.74a186.31,186.31,0,0,0,1.91-20.68,18.83,18.83,0,0,0-.06-2.91,2.69,2.69,0,0,0-2.45-2.31,2.79,2.79,0,0,0-2.5,2.26c-.09.6-.06,1.22-.11,1.82-.39,5-.79,9.93-1.17,14.9-.09,1.09,0,2.2-.19,3.28-.13.9-.45,1.77-.81,3.16-2.14-4-3.87-7.61-5.92-11A101,101,0,0,0,389.78,571a81,81,0,0,0-8.18-8.8c-2.92-2.72-6.18-5.07-9.45-7.72.89-3.45,2.63-6.66,3.82-10.08s2.68-7,3.9-10.6c1.17-3.41,2.43-6.79,3.57-10.53a20.51,20.51,0,0,1,1.83,1.15c2.56,2.05,5.23,4,7.64,6.21,5.8,5.3,12.46,9.31,19.23,13.15a240,240,0,0,0,24.12,12,5.3,5.3,0,0,1,.8.62,37.88,37.88,0,0,1-.27,8.8c-1.84,15-6.7,29.1-11.69,43.19-5.37,15.11-11.16,30.07-16,45.38a270.62,270.62,0,0,0-7.93,30.28c-1.22,6.32-2.24,12.67-2.9,19.09-.55,5.32-.83,10.65-1,16a128.92,128.92,0,0,0,1,18.92,101.38,101.38,0,0,0,2.54,14,86.8,86.8,0,0,0,11.66,26.59,77.37,77.37,0,0,0,29,26.06c10.43,5.5,21.57,8.63,33.23,10.34a152.75,152.75,0,0,0,29.83,1.1,117.11,117.11,0,0,0,33.19-6.27A86.31,86.31,0,0,0,559.12,799a69.35,69.35,0,0,0,27-37.87,101.64,101.64,0,0,0,3.66-38.24c-1.27-14.62-4.83-28.72-9.27-42.64-5.4-16.92-12.19-33.31-18.82-49.77-4.18-10.37-8.37-20.73-11.8-31.39a98.1,98.1,0,0,1-4.65-20.22c5-1.13,9.77-.55,14.43-1.39s9.61-1.34,14.38-2.19,9.22-1.88,14.24-2.92a25.62,25.62,0,0,1-1.33,2.36,89.56,89.56,0,0,0-8.5,13.58,52.77,52.77,0,0,0-5,16.28c-.84.38-1.09-.23-1.33-.75-1.52-3.31-3-6.65-4.55-10a7.83,7.83,0,0,0-1.62-2.35,2,2,0,0,0-2.34-.46,2.52,2.52,0,0,0-1.59,2.62,9.77,9.77,0,0,0,.78,2.4c3,6.53,5.91,13.07,9,19.56,6.14,13.09,12.32,26.16,17.59,39.64s9.57,27.54,11.76,42c.43,2.87.7,5.76,1.05,8.62-.94.71-1.75,1.24-2.45,1.89a2.54,2.54,0,0,0-.36,3,2.24,2.24,0,0,0,2.47,1.15,18.42,18.42,0,0,0,3.37-1.32,82.7,82.7,0,0,1,17.37-6.47,70.37,70.37,0,0,1,14.75-2.19,100.83,100.83,0,0,1,21.81,1.21c.09,0,.16.14.25.22.28,1-.61,1.22-1.13,1.59a28.31,28.31,0,0,0-11,16.66c-3.5,13.83,1.62,27.17,14.94,34.18a45.7,45.7,0,0,0,12.3,4.42,9,9,0,0,0,2.88.16,2.31,2.31,0,0,0,.77-4.34,14.39,14.39,0,0,0-3.1-1,37.69,37.69,0,0,1-9.91-3.54,43.07,43.07,0,0,1-5.29-3.21,20.85,20.85,0,0,1-8.67-15.79A29.21,29.21,0,0,1,654,717.4a19.64,19.64,0,0,1,13.25-11.09,26,26,0,0,1,9.79-.34c5.57.67,10.59,2.66,14.6,6.77a19.79,19.79,0,0,1,5.37,9,11,11,0,0,0,.9,2.39,2.43,2.43,0,0,0,2.76,1.24,2.29,2.29,0,0,0,1.91-2.34,15,15,0,0,0-.55-3.59,65.58,65.58,0,0,1-2.46-14.7,32.05,32.05,0,0,1,2.55-15.31,13.15,13.15,0,0,1,5.79-6.35c4.64-2.54,9.49-4.4,14.91-4,7.22.51,14.27,5.13,16.21,12.55a23,23,0,0,1,.11,9.78c-.62,3.58-1.58,7.11-2.4,10.65-.11.48-.3.93-.39,1.41-.41,2.32.55,3.55,2.85,3.58.73,0,1.46-.14,2.19-.15a29.7,29.7,0,0,1,3.27,0c5.66.51,9.61,3.49,11.48,8.76C759.34,734.57,758.67,743.1,752.84,750.92ZM261.78,783.73c-.67,19.63,14.58,37.39,35.84,37.52a36.07,36.07,0,1,0,.62-72.14C278,748.6,262.39,765.64,261.78,783.73Zm415.15-67c-7.8,0-14.82,6.74-14.26,14.69a14.45,14.45,0,1,0,28.9-.64C691.35,721.4,683.82,716.8,676.93,716.75Zm-10.12,60.87c-7.32-.79-14.48,6.43-14.45,14,0,6.92,5.73,14.5,14.21,14.41a14.18,14.18,0,0,0,14.31-14.34C680.89,782.55,672.86,777.09,666.81,777.62ZM329.18,747.25A13.57,13.57,0,0,0,343,733.42c.59-6.29-4.7-13.94-13.54-14.16a14,14,0,1,0-.29,28ZM734.9,703.68c-.75-8.75-6.16-13.55-14.17-14.32-8.12.72-13.78,6.37-14.11,14.39.7,8.61,6.65,13.91,14.14,13.79C729.53,717.4,734.24,711,734.9,703.68ZM272.78,724.25c6.25.48,13.47-4.74,13.49-13.65a13.51,13.51,0,0,0-27,.42C259.27,718.24,265.66,724.78,272.78,724.25Zm468.11-1.67a13.24,13.24,0,0,0-13.35,13.13A13.53,13.53,0,0,0,741.08,749a13.22,13.22,0,0,0-.19-26.44ZM355.31,790.12c6.6.4,12.85-5.37,13.08-12.88.21-6.84-5.86-12.65-12.71-12.91a13,13,0,0,0-13.35,12.49C342.21,785.2,349.47,790.51,355.31,790.12ZM243,755.39c-6.21.09-12.64,5.82-12.45,13,.18,6.69,6.32,12.85,12.72,12.22,7.23.49,13-6.38,12.83-12.88A13.12,13.12,0,0,0,243,755.39Zm324.42-376a61.23,61.23,0,0,0-31.28-8.69c-2.18.23-6.33.39-10.37,1.15-8.61,1.62-16.81,4.65-24.89,8a8.21,8.21,0,0,0-1.58.89,2.21,2.21,0,0,0-.86,2.56,2,2,0,0,0,2.2,1.52,14.46,14.46,0,0,0,3.14-.79c4.33-1.57,8.61-3.29,13-4.75a59.78,59.78,0,0,1,18.87-3.5,50.24,50.24,0,0,1,14.73,1.93A69.35,69.35,0,0,1,563.06,383a15.21,15.21,0,0,0,3,1.3,2.65,2.65,0,0,0,2.92-1.68,2.38,2.38,0,0,0-.7-2.64A5,5,0,0,0,567.39,379.39ZM385.17,425.7a56.69,56.69,0,0,0,23.05,35.51c9.87,7.14,20.59,8,31.79,3.34,9.38-3.9,15.58-10.94,19.63-20.05,3.58-8.05,4.49-16.59,4.45-25.3-.18-2.41-.31-4.84-.56-7.26a62.88,62.88,0,0,0-7-23.94,39.47,39.47,0,0,0-12.65-14.35,30.93,30.93,0,0,0-18.09-5.75,32.67,32.67,0,0,0-7.22.57,35.78,35.78,0,0,0-15.26,8.14,56,56,0,0,0-16.54,25.73A45.69,45.69,0,0,0,385.17,425.7ZM414.25,380c6.89.31,12.39,5.13,12.5,12.25.13,8.11-6,12.79-12.62,12.78a12.41,12.41,0,0,1-12.29-12.7A12.73,12.73,0,0,1,414.25,380ZM602.33,476.6A27.48,27.48,0,0,0,615,487.79c7.7,3.32,14.9,2.5,21.6-2.52a40.72,40.72,0,0,0,3.6-3.09c5.47-5.2,9.24-11.55,12.16-18.44A45.58,45.58,0,0,0,656,450.07a56.86,56.86,0,0,0-.48-15.62,54.76,54.76,0,0,0-12.44-26.38A28.4,28.4,0,0,0,633,400.46a18.18,18.18,0,0,0-9.58-1.72,25,25,0,0,0-16.79,9.3,43.78,43.78,0,0,0-7.48,13.68,72.76,72.76,0,0,0-3.73,25.51,64.47,64.47,0,0,0,1.1,14.13A45.21,45.21,0,0,0,602.33,476.6Zm28-67.35a12.49,12.49,0,1,1-.37,25,12.49,12.49,0,0,1,.37-25Z" transform="translate(-199.61 -30.57)"/><path class="cls-8" d="M588.68,535.12a23.64,23.64,0,0,0-7.95,10.67c-1.08,2.72-2,2.93-4.28,1.2-.48-.37-.94-.76-1.44-1.11a18.73,18.73,0,0,0-9.1-3.41,20.32,20.32,0,0,0-17.91,7c-.24.27-.47.56-.73.82-1.17,1.18-2,1.19-3,0-.48-.55-.88-1.17-1.33-1.74a22.86,22.86,0,0,0-6.59-5.68,16.32,16.32,0,0,0-14-1.3,19.88,19.88,0,0,0-6.3,3.58c-1.12.92-2.15,2-3.25,2.93s-2.1,1-3.12-.15c-.48-.54-.9-1.14-1.35-1.72a29.31,29.31,0,0,0-6-5.78c-5.59-4-11.43-4.28-17.43-1.07a31,31,0,0,0-4.11,3c-1.29,1-2.18,1-3.08-.29-.64-.88-1.2-1.83-1.81-2.73a27.1,27.1,0,0,0-5.95-6.37,15.37,15.37,0,0,0-12.65-3.23,26.11,26.11,0,0,0-7.84,2.83c-.86.46-1.66,1-2.54,1.44a1.72,1.72,0,0,1-2.48-.74c-.53-1-.92-2-1.39-3a27.94,27.94,0,0,0-6.21-8.92c-2.24-2-4.71-3.4-7.84-3.24a33.07,33.07,0,0,0-4.36.22,19.91,19.91,0,0,0-6.81,2.23c.18.34.24.61.41.74,1,.74,1.93,1.47,2.92,2.17a185.26,185.26,0,0,0,47.63,24.08,188.25,188.25,0,0,0,34.26,8.12c6.27.86,12.56,1.25,18.88,1.64a171.29,171.29,0,0,0,21.5-.36,157,157,0,0,0,24.47-3.53,172.4,172.4,0,0,0,39.7-14c1.06-.53,2.06-1.19,3.55-2.06a28.14,28.14,0,0,0-8.9-4.51A14.51,14.51,0,0,0,588.68,535.12ZM426.75,392.22c-.11-7.12-5.61-11.94-12.5-12.25a12.73,12.73,0,0,0-12.41,12.33A12.41,12.41,0,0,0,414.13,405C420.75,405,426.88,400.33,426.75,392.22Zm203.62,17a12.49,12.49,0,1,0,12.42,12.69A12.37,12.37,0,0,0,630.37,409.25Z" transform="translate(-199.61 -30.57)"/></svg>